<svg id="图层_1" data-name="图层 1" xmlns="http://www.w3.org/2000/svg" viewBox="0 0 510.24 434.19"><defs><style>.cls-1{fill:#818181;}.cls-1,.cls-2,.cls-3{isolation:isolate;}.cls-2{fill:#a2a2a2;}.cls-3{fill:#c4c4c4;}</style></defs><title>logo grey</title><path class="cls-1" d="M509.48,0H380V.05a120.15,120.15,0,0,0-84,35.17L254,77.43,213.45,36.78C166-10.86,87.47-10.06,39,38.56l-2.12,2.13c-48.46,48.62-49.27,127.38-1.79,175l131,131.44a120.06,120.06,0,0,0,9.22,8.34L254,434.19l80.64-80.64q4.53-3.72,8.77-8l131-131.44a121,121,0,0,0,35.06-85.37h0Z"/><path class="cls-2" d="M406.48,0h0C396.86,44.18,384,89.73,358.05,126.25c-11.15,15.67-21.48,23.53-36.67,37.75l-20.61,16.28c-28.59,22-58.44,43.86-75,72.36-20.25,34.76-23.17,89-35.83,116.7h0l64.84,64.84,80.64-80.64a116.88,116.88,0,0,0,8.77-8l131-131.44a121,121,0,0,0,35.06-85.37h0V0Z"/><path class="cls-3" d="M387.14,209.2c-33.57,25.83-68.68,51.32-88,84.43-25,42.85-27.31,110.42-44.43,140.56l80.64-80.64a116.88,116.88,0,0,0,8.77-8l131-131.44c27.48-27.58,34.92-50,35.06-85.37h0V0l-12,49.65c-8.94,26-12,32-33.52,77.88C456,146.3,440,161.77,426,177.18Z"/></svg>