<svg id="图层_1" data-name="图层 1" xmlns="http://www.w3.org/2000/svg" viewBox="0 0 10.93 9.11"><defs><style>.cls-1{fill:#33a3f4;}</style></defs><title>testblue</title><path class="cls-1" d="M11.36,1.71H3.54a.11.11,0,0,0-.11.11v.75a.11.11,0,0,0,.11.11h7.82a.1.1,0,0,0,.1-.11V1.82A.1.1,0,0,0,11.36,1.71Zm0,3.81H3.54a.11.11,0,0,0-.11.1v.75a.11.11,0,0,0,.11.11h7.82a.1.1,0,0,0,.1-.11V5.62A.1.1,0,0,0,11.36,5.52Zm0,3.8H3.54a.11.11,0,0,0-.11.11v.75a.11.11,0,0,0,.11.11h7.82a.1.1,0,0,0,.1-.11V9.43A.1.1,0,0,0,11.36,9.32ZM.54,2.2a.75.75,0,1,0,.75-.75A.75.75,0,0,0,.54,2.2ZM.54,6a.75.75,0,1,0,.75-.75A.75.75,0,0,0,.54,6Zm0,3.8A.75.75,0,0,0,2,9.8a.75.75,0,0,0-1.5,0Z" transform="translate(-0.54 -1.45)"/></svg>